<svg width="175" height="28" viewBox="0 0 175 28" fill="none" xmlns="http://www.w3.org/2000/svg">
  <path
    d="M148.246 27.6067C147.63 27.6067 147.098 27.3988 146.652 26.9829C146.22 26.5516 146.005 26.0047 146.005 25.3424C146.005 24.68 146.22 24.1486 146.652 23.7481C147.098 23.3322 147.63 23.1242 148.246 23.1242C148.878 23.1242 149.409 23.3322 149.84 23.7481C150.272 24.1486 150.487 24.68 150.487 25.3424C150.487 26.0047 150.272 26.5516 149.84 26.9829C149.409 27.3988 148.878 27.6067 148.246 27.6067ZM160.78 27.4219V24.9958L160.549 24.4644V20.1205C160.549 19.3503 160.311 18.7496 159.833 18.3183C159.371 17.887 158.655 17.6713 157.684 17.6713C157.022 17.6713 156.367 17.7792 155.72 17.9948C155.089 18.1951 154.55 18.4723 154.103 18.8266L152.809 16.3081C153.487 15.8306 154.303 15.4609 155.258 15.199C156.213 14.9372 157.184 14.8063 158.17 14.8063C160.064 14.8063 161.535 15.253 162.583 16.1464C163.63 17.0398 164.154 18.4338 164.154 20.3285V27.4219H160.78ZM156.991 27.6067C156.021 27.6067 155.189 27.445 154.496 27.1215C153.803 26.7826 153.271 26.3282 152.901 25.7583C152.532 25.1883 152.347 24.5491 152.347 23.8405C152.347 23.1011 152.524 22.4542 152.878 21.8997C153.248 21.3451 153.826 20.9138 154.611 20.6057C155.397 20.2823 156.421 20.1205 157.684 20.1205H160.988V22.2231H158.077C157.23 22.2231 156.645 22.3618 156.321 22.639C156.013 22.9163 155.859 23.2629 155.859 23.6788C155.859 24.1409 156.036 24.5106 156.39 24.7878C156.76 25.0497 157.261 25.1806 157.892 25.1806C158.493 25.1806 159.032 25.042 159.51 24.7647C159.987 24.4721 160.334 24.0485 160.549 23.4939L161.104 25.1575C160.842 25.9585 160.365 26.567 159.671 26.9829C158.978 27.3988 158.085 27.6067 156.991 27.6067ZM167.416 27.4219V14.9911H171.021V27.4219H167.416ZM169.218 13.2582C168.556 13.2582 168.017 13.0656 167.601 12.6805C167.185 12.2955 166.977 11.8179 166.977 11.248C166.977 10.6781 167.185 10.2006 167.601 9.81546C168.017 9.43037 168.556 9.23782 169.218 9.23782C169.881 9.23782 170.42 9.42267 170.836 9.79236C171.252 10.1466 171.46 10.6088 171.46 11.1787C171.46 11.7794 171.252 12.2801 170.836 12.6805C170.435 13.0656 169.896 13.2582 169.218 13.2582Z"
    fill="#3155e7"></path>
  <path
    d="M0 24.5503L2.26118 19.1994C3.39642 19.713 4.57045 20.1239 5.77078 20.4276C7.08113 20.7943 8.42989 20.9836 9.78494 20.9909C10.3042 20.9909 10.7793 20.9635 11.3169 20.9126C12.0535 20.8422 13.1583 20.6075 13.3719 19.5358C13.6076 18.2333 12.2671 17.4979 11.711 17.2867C9.07417 16.3088 8.28975 16.5044 5.49458 15.3779C4.12462 14.8224 1.89291 13.8993 0.758635 11.6033C0.205595 10.4261 -0.0216976 9.10636 0.103126 7.79741C0.342502 4.17146 2.681 1.53903 6.50733 0.608094C10.8787 -0.459742 14.9775 0.608094 19.3342 2.36826C18.3988 4.26925 17.5996 5.88861 16.852 7.41018C14.607 6.40478 12.1918 5.89892 9.75547 5.92382C9.08154 5.92382 6.9824 6.13895 6.83509 7.51188C6.7062 8.744 8.34133 9.35419 9.14784 9.60843C9.62659 9.7688 13.5008 10.9579 15.1028 11.6268C18.1152 12.7533 20.0854 14.8889 20.2328 18.4601C20.3617 21.5502 18.3914 24.6716 15.3421 25.892C10.1164 27.9885 5.09686 26.952 0 24.5503Z"
    fill="#3155e7"></path>
  <path
    d="M33.9803 9.72787L26.4234 26.9736H20.5679C20.8441 26.3048 21.2786 25.409 21.7095 24.5094C22.3393 23.2069 22.7812 22.2446 22.8438 22.1116C23.4772 20.7896 25.7899 14.3786 32.1242 0.0195527L35.8327 0C39.4822 8.23368 43.176 18.7399 46.8255 26.9893H40.9222C36.4477 15.7398 40.5244 25.8197 33.9803 9.72787Z"
    fill="#3155e7"></path>
  <path
    d="M48.689 24.6052L50.9465 19.2543C52.0813 19.7691 53.2554 20.1799 54.4561 20.4825C55.7637 20.8504 57.1101 21.0397 58.4628 21.0457C58.9858 21.0457 59.4608 21.0183 59.9948 20.9675C60.7314 20.901 61.8546 20.6624 62.0498 19.5906C62.2892 18.2881 60.945 17.5528 60.3889 17.3455C57.7521 16.3676 56.9713 16.5632 54.1762 15.4327C52.8062 14.8812 50.5745 13.9581 49.4365 11.6581C48.8853 10.4817 48.6581 9.16378 48.781 7.85618C49.0241 4.22632 51.3589 1.5978 55.1889 0.662955C59.5603 -0.40097 63.6591 0.662959 68.0158 2.42704L65.5336 7.46503C63.2971 6.46209 60.8905 5.95753 58.4628 5.98258C57.7852 5.98258 55.6898 6.1938 55.5425 7.57065C55.4099 8.79885 57.0487 9.40905 57.8552 9.6633C58.3339 9.82367 62.2082 11.0127 63.8101 11.6816C66.8189 12.8081 68.7928 14.9438 68.9401 18.515C69.069 21.6051 67.0988 24.7264 64.0495 25.9468C58.8016 28.0434 53.7821 27.0068 48.689 24.6052Z"
    fill="#3155e7"></path>
  <path
    d="M70.7739 24.3806C71.5301 22.5969 72.2838 20.8133 73.0351 19.0296C74.1699 19.5444 75.344 19.9553 76.5447 20.2579C77.8547 20.6265 79.2037 20.8158 80.5589 20.8211C81.0818 20.8211 81.5532 20.7937 82.0909 20.7429C82.8274 20.6764 83.9506 20.4378 84.1458 19.366C84.3852 18.0635 83.041 17.3281 82.4849 17.1208C79.8481 16.1391 79.0674 16.3385 76.2722 15.2081C74.8985 14.6566 72.6705 13.7335 71.5326 11.4335C70.9814 10.2571 70.7542 8.93918 70.8771 7.63158C71.1164 4.00172 73.4549 1.37319 77.2813 0.438346C81.6526 -0.625579 85.7515 0.43835 90.1118 2.20243L87.626 7.23651C85.3828 6.22977 82.9682 5.72511 80.5331 5.75406C79.8555 5.75406 77.76 5.96528 77.6127 7.34212C77.4801 8.57033 79.1153 9.18052 79.9218 9.43477C80.4042 9.59514 84.2784 10.7842 85.8767 11.4531C88.8891 12.5796 90.8631 14.7153 91.0104 18.2865C91.1356 21.3765 89.169 24.4979 86.1197 25.7183C80.8903 27.8188 75.8708 26.7939 70.7739 24.3806Z"
    fill="#3155e7"></path>
  <path d="M115.059 5.59139H93.9165V0.0566406H115.059V5.59139Z" fill="#3155e7"></path>
  <path d="M96.1104 16.0888V11.0039H112.863V16.0888H96.1104Z" fill="#3155e7"></path>
  <path d="M116.077 26.982H93.6128V21.4453H116.077V26.982Z" fill="#3155e7"></path>
  <path
    d="M122.195 0.0800781H118.401C118.401 0.0800781 118.468 9.64367 118.453 17.3806C118.453 18.116 118.453 21.5189 118.453 22.2269C118.453 23.9128 118.453 25.5947 118.453 27.0615H125.082C125.082 24.8359 125.082 22.4812 125.082 20.1617L125.148 11.7833C125.432 12.1196 125.781 12.5304 126.069 12.8628L138.328 27.0615H142.122C142.122 27.0615 142.055 17.4979 142.07 9.76101C142.07 9.02565 142.07 5.62266 142.07 4.91468C142.07 3.22883 142.07 1.54689 142.07 0.0800781H135.441C135.441 2.30572 135.441 4.66044 135.441 6.97995L135.375 15.3584"
    fill="#3155e7"></path>
</svg>