<svg width="120" height="40" viewBox="0 0 120 40" fill="none" xmlns="http://www.w3.org/2000/svg">
  <path fill-rule="evenodd" clip-rule="evenodd" d="M10.0148 2.5V40H0V2.5H10.0148Z" fill="#283841"></path>
  <path fill-rule="evenodd" clip-rule="evenodd"
    d="M15.0222 2.5H36.3037C43.2175 2.5 48.8222 8.09644 48.8222 15C48.8222 21.9036 43.2175 27.5 36.3037 27.5H25.037V40H15.0222V2.5ZM25.037 17.5H36.3037C37.6865 17.5 38.8074 16.3807 38.8074 15C38.8074 13.6193 37.6865 12.5 36.3037 12.5H25.037V17.5Z"
    fill="#283841"></path>
  <path fill-rule="evenodd" clip-rule="evenodd"
    d="M86.3778 2.5V21.875C86.3778 26.3623 90.0208 30 94.5148 30C99.0088 30 102.652 26.3623 102.652 21.875V2.5H112.667V21.875C112.667 31.8852 104.54 40 94.5148 40C84.4898 40 76.363 31.8852 76.363 21.875V2.5H86.3778Z"
    fill="#283841"></path>
  <path fill-rule="evenodd" clip-rule="evenodd"
    d="M52.5778 20C52.5778 10.335 60.4244 2.5 70.1037 2.5H72.6074V12.5H70.1037C65.9554 12.5 62.5926 15.8579 62.5926 20V21.25C62.5926 31.6053 54.1855 40 43.8148 40H42.563V30H43.8148C48.6545 30 52.5778 26.0825 52.5778 21.25V20Z"
    fill="#283841"></path>
</svg>